<svg height="512pt" viewBox="-111 0 512 512" width="512pt" xmlns="http://www.w3.org/2000/svg"><path d="m290.632812 145.1875c0-32.652344-10.847656-62.820312-29.128906-87.097656-3.929687-5.332032-8.285156-10.40625-13.054687-15.171875-.3125-.3125-.640625-.601563-.972657-.878907-26.269531-25.972656-62.371093-42.039062-102.160156-42.039062-80.128906 0-145.316406 65.132812-145.316406 145.1875 0 75 57.210938 136.894531 130.316406 144.421875v207.390625c0 8.285156 6.714844 15 15 15s15-6.714844 15-15v-207.394531c73.105469-7.523438 130.316406-69.417969 130.316406-144.417969zm-260.632812 0c0-63.515625 51.730469-115.1875 115.316406-115.1875 37.214844 0 70.363282 17.707031 91.460938 45.121094 13.058594 17.386718 20.125 38.421875 20.125 60.542968 0 27.015626-10.535156 52.417969-29.65625 71.523438-30.421875 30.386719-79.921875 30.390625-110.339844-.003906-11.21875-11.207032-17.394531-26.105469-17.394531-41.953125 0-15.84375 6.175781-30.746094 17.394531-41.953125 17.367188-17.347656 45.617188-17.347656 62.984375 0 6.160156 6.152344 9.550781 14.332031 9.550781 23.03125 0 8.699218-3.390625 16.878906-9.550781 23.03125-9.011719 9-23.667969 9-32.675781-.003906-2.921875-2.914063-4.53125-6.792969-4.53125-10.917969 0-4.121094 1.609375-8 4.53125-10.917969 5.859375-5.855469 5.863281-15.351562.007812-21.214844-5.855468-5.859375-15.351562-5.863281-21.210937-.007812-8.59375 8.582031-13.328125 20-13.328125 32.140625 0 12.144531 4.734375 23.558593 13.328125 32.144531 10.351562 10.339844 23.941406 15.511719 37.539062 15.507812 13.59375 0 27.191407-5.167968 37.542969-15.507812 11.832031-11.820312 18.347656-27.535156 18.347656-44.253906s-6.515625-32.433594-18.347656-44.253906c-29.054688-29.027344-76.332031-29.027344-105.390625 0-16.890625 16.875-26.191406 39.3125-26.191406 63.175781 0 23.867187 9.300781 46.304687 26.191406 63.179687 18.15625 18.136719 41.210937 28.449219 64.949219 30.945313-5.015625.671875-10.136719 1.023437-15.335938 1.023437-63.585937 0-115.316406-51.675781-115.316406-115.191406zm0 0"/></svg>